<svg data-v-423bf9ae="" xmlns="http://www.w3.org/2000/svg" viewBox="0 0 595 90" class="iconLeft"><!----><!----><!----><g data-v-423bf9ae="" id="fada46ef-d353-4943-9f19-90129e677c5a" fill="#000000" transform="matrix(5.9055118997155125,0,0,5.9055118997155125,85.33442534322211,-2.716537606495173)"><path d="M2.63 11.97L7.92 11.97L7.92 13.02L1.51 13.02L1.51 3.78L2.63 3.78L2.63 11.97ZM12.42 5.88L12.42 5.88Q14 5.88 14.90 6.85L14.90 6.85L14.90 6.85Q15.81 7.81 15.81 9.52L15.81 9.52L15.81 9.52Q15.81 11.23 14.90 12.19L14.90 12.19L14.90 12.19Q14 13.16 12.42 13.16L12.42 13.16L12.42 13.16Q10.84 13.16 9.93 12.19L9.93 12.19L9.93 12.19Q9.03 11.23 9.03 9.52L9.03 9.52L9.03 9.52Q9.03 7.81 9.93 6.85L9.93 6.85L9.93 6.85Q10.84 5.88 12.42 5.88L12.42 5.88ZM12.42 6.85L12.42 6.85Q11.35 6.85 10.75 7.56L10.75 7.56L10.75 7.56Q10.15 8.27 10.15 9.52L10.15 9.52L10.15 9.52Q10.15 10.77 10.75 11.48L10.75 11.48L10.75 11.48Q11.35 12.19 12.42 12.19L12.42 12.19L12.42 12.19Q13.48 12.19 14.08 11.48L14.08 11.48L14.08 11.48Q14.69 10.77 14.69 9.52L14.69 9.52L14.69 9.52Q14.69 8.27 14.08 7.56L14.08 7.56L14.08 7.56Q13.48 6.85 12.42 6.85L12.42 6.85ZM23.91 13.02L21.39 9.18L19.18 9.18L19.18 13.02L18.06 13.02L18.06 3.78L21.56 3.78L21.56 3.78Q22.97 3.78 23.83 4.51L23.83 4.51L23.83 4.51Q24.68 5.24 24.68 6.48L24.68 6.48L24.68 6.48Q24.68 7.46 24.14 8.13L24.14 8.13L24.14 8.13Q23.59 8.81 22.64 9.06L22.64 9.06L25.24 13.02L23.91 13.02ZM19.18 4.83L19.18 8.13L21.55 8.13L21.55 8.13Q23.51 8.13 23.51 6.48L23.51 6.48L23.51 6.48Q23.51 4.83 21.55 4.83L21.55 4.83L19.18 4.83ZM32.90 12.21L32.90 12.21Q33.18 12.21 33.46 12.14L33.46 12.14L33.39 13.02L33.39 13.02Q33.00 13.16 32.55 13.16L32.55 13.16L32.55 13.16Q32.00 13.16 31.69 12.92L31.69 12.92L31.69 12.92Q31.37 12.68 31.29 12.12L31.29 12.12L31.29 12.12Q30.97 12.61 30.34 12.89L30.34 12.89L30.34 12.89Q29.72 13.16 29.04 13.16L29.04 13.16L29.04 13.16Q28.00 13.16 27.33 12.68L27.33 12.68L27.33 12.68Q26.66 12.19 26.66 11.28L26.66 11.28L26.66 11.28Q26.66 10.49 27.36 9.90L27.36 9.90L27.36 9.90Q28.06 9.32 29.39 9.10L29.39 9.10L31.25 8.79L31.25 8.40L31.25 8.40Q31.25 7.70 30.81 7.28L30.81 7.28L30.81 7.28Q30.38 6.86 29.61 6.86L29.61 6.86L29.61 6.86Q28.91 6.86 28.40 7.20L28.40 7.20L28.40 7.20Q27.89 7.53 27.61 8.19L27.61 8.19L26.78 7.59L26.78 7.59Q27.06 6.80 27.82 6.34L27.82 6.34L27.82 6.34Q28.59 5.88 29.61 5.88L29.61 5.88L29.61 5.88Q30.86 5.88 31.61 6.48L31.61 6.48L31.61 6.48Q32.37 7.08 32.37 8.26L32.37 8.26L32.37 11.70L32.37 11.70Q32.37 11.96 32.49 12.08L32.49 12.08L32.49 12.08Q32.62 12.21 32.90 12.21L32.90 12.21ZM29.09 12.18L29.09 12.18Q29.97 12.18 30.61 11.76L30.61 11.76L30.61 11.76Q31.25 11.34 31.25 10.67L31.25 10.67L31.25 9.70L29.68 10.00L29.68 10.00Q28.74 10.16 28.28 10.48L28.28 10.48L28.28 10.48Q27.82 10.79 27.82 11.28L27.82 11.28L27.82 11.28Q27.82 11.72 28.15 11.95L28.15 11.95L28.15 11.95Q28.49 12.18 29.09 12.18L29.09 12.18ZM44.23 3.78L44.23 13.02L43.16 13.02L43.16 7.21L43.29 4.77L43.27 4.77L40.24 13.02L39.28 13.02L36.25 4.77L36.23 4.77L36.36 7.21L36.36 13.02L35.29 13.02L35.29 3.78L37.02 3.78L39.05 9.39L39.75 11.70L39.77 11.70L40.49 9.41L42.50 3.78L44.23 3.78ZM49.87 5.88L49.87 5.88Q51.45 5.88 52.35 6.85L52.35 6.85L52.35 6.85Q53.26 7.81 53.26 9.52L53.26 9.52L53.26 9.52Q53.26 11.23 52.35 12.19L52.35 12.19L52.35 12.19Q51.45 13.16 49.87 13.16L49.87 13.16L49.87 13.16Q48.29 13.16 47.38 12.19L47.38 12.19L47.38 12.19Q46.48 11.23 46.48 9.52L46.48 9.52L46.48 9.52Q46.48 7.81 47.38 6.85L47.38 6.85L47.38 6.85Q48.29 5.88 49.87 5.88L49.87 5.88ZM49.87 6.85L49.87 6.85Q48.80 6.85 48.20 7.56L48.20 7.56L48.20 7.56Q47.60 8.27 47.60 9.52L47.60 9.52L47.60 9.52Q47.60 10.77 48.20 11.48L48.20 11.48L48.20 11.48Q48.80 12.19 49.87 12.19L49.87 12.19L49.87 12.19Q50.93 12.19 51.53 11.48L51.53 11.48L51.53 11.48Q52.14 10.77 52.14 9.52L52.14 9.52L52.14 9.52Q52.14 8.27 51.53 7.56L51.53 7.56L51.53 7.56Q50.93 6.85 49.87 6.85L49.87 6.85ZM58.83 5.88L58.83 5.88Q60.02 5.88 60.79 6.57L60.79 6.57L60.79 6.57Q61.56 7.25 61.56 8.54L61.56 8.54L61.56 13.02L60.44 13.02L60.44 8.93L60.44 8.93Q60.44 7.84 59.97 7.35L59.97 7.35L59.97 7.35Q59.50 6.86 58.72 6.86L58.72 6.86L58.72 6.86Q58.16 6.86 57.67 7.10L57.67 7.10L57.67 7.10Q57.18 7.35 56.86 7.90L56.86 7.90L56.86 7.90Q56.55 8.46 56.55 9.30L56.55 9.30L56.55 13.02L55.43 13.02L55.43 6.02L56.41 6.02L56.48 7.11L56.48 7.11Q56.83 6.48 57.44 6.18L57.44 6.18L57.44 6.18Q58.06 5.88 58.83 5.88L58.83 5.88ZM64.65 4.68L64.65 4.68Q64.27 4.68 64.04 4.44L64.04 4.44L64.04 4.44Q63.81 4.21 63.81 3.84L63.81 3.84L63.81 3.84Q63.81 3.46 64.04 3.23L64.04 3.23L64.04 3.23Q64.27 3.00 64.65 3.00L64.65 3.00L64.65 3.00Q65.03 3.00 65.26 3.23L65.26 3.23L65.26 3.23Q65.49 3.46 65.49 3.84L65.49 3.84L65.49 3.84Q65.49 4.21 65.26 4.44L65.26 4.44L65.26 4.44Q65.03 4.68 64.65 4.68L64.65 4.68ZM65.21 6.02L65.21 13.02L64.09 13.02L64.09 6.02L65.21 6.02ZM71.71 11.59L72.10 12.53L72.10 12.53Q71.40 13.16 70.29 13.16L70.29 13.16L70.29 13.16Q69.44 13.16 68.90 12.70L68.90 12.70L68.90 12.70Q68.36 12.24 68.35 11.28L68.35 11.28L68.35 6.99L66.95 6.99L66.95 6.02L68.35 6.02L68.35 4.34L69.47 4.03L69.47 6.02L72.06 6.02L72.06 6.99L69.47 6.99L69.47 11.09L69.47 11.09Q69.47 11.59 69.76 11.85L69.76 11.85L69.76 11.85Q70.04 12.11 70.52 12.11L70.52 12.11L70.52 12.11Q71.19 12.11 71.71 11.59L71.71 11.59ZM76.64 5.88L76.64 5.88Q78.22 5.88 79.12 6.85L79.12 6.85L79.12 6.85Q80.02 7.81 80.02 9.52L80.02 9.52L80.02 9.52Q80.02 11.23 79.12 12.19L79.12 12.19L79.12 12.19Q78.22 13.16 76.64 13.16L76.64 13.16L76.64 13.16Q75.05 13.16 74.15 12.19L74.15 12.19L74.15 12.19Q73.25 11.23 73.25 9.52L73.25 9.52L73.25 9.52Q73.25 7.81 74.15 6.85L74.15 6.85L74.15 6.85Q75.05 5.88 76.64 5.88L76.64 5.88ZM76.64 6.85L76.64 6.85Q75.57 6.85 74.97 7.56L74.97 7.56L74.97 7.56Q74.37 8.27 74.37 9.52L74.37 9.52L74.37 9.52Q74.37 10.77 74.97 11.48L74.97 11.48L74.97 11.48Q75.57 12.19 76.64 12.19L76.64 12.19L76.64 12.19Q77.70 12.19 78.30 11.48L78.30 11.48L78.30 11.48Q78.90 10.77 78.90 9.52L78.90 9.52L78.90 9.52Q78.90 8.27 78.30 7.56L78.30 7.56L78.30 7.56Q77.70 6.85 76.64 6.85L76.64 6.85ZM85.50 5.88L85.50 5.88Q86.00 5.88 86.27 6.02L86.27 6.02L86.04 7.11L86.04 7.11Q85.71 6.93 85.16 6.93L85.16 6.93L85.16 6.93Q84.71 6.93 84.29 7.19L84.29 7.19L84.29 7.19Q83.86 7.45 83.59 7.97L83.59 7.97L83.59 7.97Q83.31 8.50 83.31 9.24L83.31 9.24L83.31 13.02L82.19 13.02L82.19 6.02L83.10 6.02L83.26 7.17L83.26 7.17Q83.85 5.88 85.50 5.88L85.50 5.88Z"></path></g><defs data-v-423bf9ae=""><linearGradient data-v-423bf9ae="" gradientTransform="rotate(25)" id="debf8208-4775-43ed-8c07-6e4b8d3ffb7b" x1="0%" y1="0%" x2="100%" y2="0%"><stop data-v-423bf9ae="" offset="0%" style="stop-color: rgb(0, 21, 214); stop-opacity: 1;"></stop><stop data-v-423bf9ae="" offset="100%" style="stop-color: rgb(9, 137, 251); stop-opacity: 1;"></stop></linearGradient></defs><g data-v-423bf9ae="" id="8f910fed-ff94-4e38-abba-4dbb9b6611c0" transform="matrix(1.4302286332827674,0,0,1.4302286332827674,-7.724886045554392,-0.31535760542878677)" stroke="none" fill="url(#debf8208-4775-43ed-8c07-6e4b8d3ffb7b)"><path d="M43.338 63.66L31.999 27.772 20.662 63.659l-1.907-.604L31.046 24.15a1 1 0 0 1 1.907 0l12.292 38.908-1.907.602z"></path><path d="M21.533 60.219l-1.149-1.637L37.07 46.858l-10.106-8.1 1.251-1.561L39.36 46.13a1.002 1.002 0 0 1-.05 1.599l-17.777 12.49z"></path><path d="M42.461 60.214l-17.49-12.489a.997.997 0 0 1-.044-1.594l11.146-8.933 1.25 1.561-10.114 8.106 16.415 11.722-1.163 1.627zM32 25.451a6.324 6.324 0 0 1-6.317-6.317A6.324 6.324 0 0 1 32 12.817a6.324 6.324 0 0 1 6.316 6.317A6.324 6.324 0 0 1 32 25.451zm0-10.634c-2.38 0-4.317 1.937-4.317 4.317S29.62 23.451 32 23.451s4.316-1.937 4.316-4.317S34.38 14.817 32 14.817zM22.178 29.02a13.89 13.89 0 0 1-4.096-9.887c0-3.734 1.454-7.246 4.095-9.886l1.414 1.414c-2.263 2.263-3.509 5.271-3.509 8.472s1.247 6.209 3.51 8.473l-1.414 1.414z"></path><path d="M18.053 33.146c-7.726-7.728-7.727-20.3-.002-28.025l1.414 1.414c-6.945 6.946-6.944 18.249.002 25.197l-1.414 1.414z"></path><path d="M13.664 37.534c-4.916-4.915-7.623-11.45-7.623-18.4 0-6.951 2.707-13.486 7.623-18.401l1.414 1.414a23.865 23.865 0 0 0-7.037 16.987 23.86 23.86 0 0 0 7.037 16.986l-1.414 1.414zM41.82 29.02l-1.414-1.414c2.264-2.264 3.512-5.273 3.512-8.473s-1.246-6.209-3.509-8.472l1.414-1.414a13.888 13.888 0 0 1 4.095 9.886 13.893 13.893 0 0 1-4.098 9.887z"></path><path d="M45.945 33.146l-1.414-1.415c6.946-6.947 6.948-18.25.003-25.197l1.414-1.414c7.725 7.727 7.724 20.299-.003 28.026z"></path><path d="M50.335 37.534l-1.414-1.414c4.537-4.538 7.036-10.57 7.036-16.986a23.868 23.868 0 0 0-7.036-16.987L50.335.733c4.915 4.915 7.622 11.45 7.622 18.401 0 6.95-2.707 13.485-7.622 18.4z"></path></g><!----></svg>